<svg xmlns="http://www.w3.org/2000/svg" viewBox="0 0 680 760" role="img" aria-labelledby="title"><title id="title">Illustrated plate of brunch toast, eggs and greens</title><defs><linearGradient id="bg" x1="0" x2="1" y1="0" y2="1"><stop stop-color="#d9b67b"/><stop offset="1" stop-color="#ac704c"/></linearGradient><radialGradient id="plate"><stop stop-color="#fff8e6"/><stop offset="1" stop-color="#d2d7b9"/></radialGradient><filter id="grain"><feTurbulence baseFrequency=".5" numOctaves="3" seed="11" stitchTiles="stitch"/><feColorMatrix type="saturate" values="0"/><feComponentTransfer><feFuncA type="linear" slope=".13"/></feComponentTransfer></filter><filter id="blur"><feGaussianBlur stdDeviation="14"/></filter></defs><rect width="680" height="760" fill="url(#bg)"/><path d="M0 0 680 0 680 760 0 760Z" fill="none" stroke="#f8dc9e" opacity=".18" stroke-width="80"/><path d="M-30 132 700 30M-40 308 700 206M-40 484 700 382M-40 660 700 558" stroke="#fff4c0" opacity=".13" stroke-width="9"/><ellipse cx="340" cy="435" rx="282" ry="275" opacity=".22" filter="url(#blur)"/><circle cx="330" cy="372" r="274" fill="#efdfc1"/><circle cx="330" cy="372" r="247" fill="url(#plate)"/><circle cx="330" cy="372" r="227" fill="none" stroke="#c1b29d" stroke-width="4"/><g transform="rotate(-17 330 372)"><rect x="152" y="222" width="335" height="278" rx="56" fill="#87502e" stroke="#60371f" stroke-width="14"/><rect x="169" y="239" width="302" height="244" rx="48" fill="#c98c45"/><path d="M212 287 435 432M189 352 410 459M275 245 465 370" stroke="#e6ad61" stroke-width="12" opacity=".7"/><path d="M225 265C170 289 207 337 263 322s42-71-1-64m113 159c-69-6-80 40-24 49s89-46 42-49" fill="#638454" stroke="#425e41" stroke-width="5"/><path d="M253 271q4 41 59 65M349 406q25 33 56 43" fill="none" stroke="#9bb16a" stroke-width="10" stroke-linecap="round"/><path d="M238 365c-46-45 22-92 85-72 82 25 54 105-19 100-36-2-52-10-66-28Z" fill="#fff6e9"/><path d="M297 319c45-5 65 46 30 59-46 18-75-50-30-59Z" fill="#ebb73a"/><path d="M334 422c-36-46 20-83 72-65 68 22 43 93-17 88-29-2-44-8-55-23Z" fill="#fff9eb"/><ellipse cx="388" cy="400" rx="27" ry="24" fill="#e6aa2a"/><g fill="#456742"><path d="M182 398q23-54 56-28l-29 67Z"/><path d="M430 267q39-37 45 12l-35 31Z"/><path d="M414 472q52-20 42-54l-61 38Z"/></g></g><g fill="#af4636"><circle cx="502" cy="544" r="33"/><circle cx="479" cy="565" r="25"/><circle cx="522" cy="571" r="27"/></g><g fill="#47663a"><path d="m495 526-19-25 30 6z"/><path d="m527 547 18-29 1 37z"/></g><path d="M52 640q130-77 222 31" fill="none" stroke="#f4d89d" stroke-width="8" stroke-linecap="round"/><rect width="680" height="760" filter="url(#grain)" opacity=".7"/></svg>
